<svg xmlns="http://www.w3.org/2000/svg" version="1.1" xmlns:xlink="http://www.w3.org/1999/xlink" xmlns:svgjs="http://svgjs.dev/svgjs" viewBox="0 0 800 800" opacity="1"><defs><linearGradient x1="50%" y1="0%" x2="50%" y2="100%" id="uundulate-grad"><stop stop-color="hsl(205, 69%, 60%)" stop-opacity="1" offset="45%"></stop><stop stop-color="hsl(205, 69%, 80%)" stop-opacity="1" offset="100%"></stop></linearGradient></defs><g stroke-width="2" stroke="url(#uundulate-grad)" fill="none"><path d="M660.436149797112 -1.041798505122415C719.3882710342369 94.63835195466095 586.9873920527641 634.5032413062988 484.73939958408516 769.4715008575517C382.4914071154062 904.4397604088049 228.59790718457816 742.4859978006746 169.64578594745308 646.8058473408912C110.693664710328 551.1256968811078 99.52122517720545 445.1750382018447 201.7692176458844 310.2067786505918C304.01721011456334 175.23851909933887 601.4840285599869 -96.72194896490578 660.436149797112 -1.041798505122415C719.3882710342369 94.63835195466095 586.9873920527641 634.5032413062988 484.73939958408516 769.4715008575517 "></path><path d="M648.5981416009897 17.18743796368284C704.8706209636999 108.51849067529423 578.4879637541121 623.844066874585 480.88760730673675 752.6774055371448C383.2872508593614 881.5107441997043 236.38891001629833 726.91851625558 180.11643065358805 635.5874635439685C123.84395129087773 544.2564108323571 113.17934991835165 443.1216911839697 210.779706365727 314.28835252141016C308.3800628131024 185.45501385885052 592.3256622382794 -74.1436147479285 648.5981416009897 17.18743796368284C704.8706209636999 108.51849067529423 578.4879637541121 623.844066874585 480.88760730673675 752.6774055371448 "></path><path d="M636.7601639224455 35.41655236217565C690.3530014107411 122.39850732561507 569.9885659730385 613.1847703725587 477.0358455469666 735.883188146425C384.0831251208948 858.5816059202912 244.1799433655966 711.350912640173 190.5871058773011 624.3689576767334C136.99426838900558 537.387002713294 126.83750517707597 441.0682220957822 219.79022560314775 318.3698043219158C312.7429460292195 195.67138654804955 583.1673264341499 -51.56540260126377 636.7601639224455 35.41655236217565C690.3530014107411 122.39850732561507 569.9885659730385 613.1847703725587 477.0358455469666 735.883188146425 "></path><path d="M624.9221404675341 53.64575831340278C675.8353360814149 136.27861552867023 561.4891224155974 602.5255654232666 473.1840380108292 719.0890623084397C384.87895360606103 835.6525591936124 251.97093093852777 695.7834005775002 201.05773532464696 613.1505433622327C150.14453971076625 530.5176861469653 140.4956146594331 439.01484456032904 228.8006990642013 322.45134767515606C317.10578346896955 205.88785078998308 574.0089448536534 -28.98709890186467 624.9221404675341 53.64575831340278C675.8353360814149 136.27861552867023 561.4891224155974 602.5255654232666 473.1840380108292 719.0890623084397 "></path><path d="M613.0841475302009 71.87487271189559C661.3177012696669 150.15863217899107 552.9897093757346 591.8662689212404 469.33226099227 702.2948449177201C385.6748126088054 812.7234209141998 259.76194902903694 680.2157969620931 211.528395289571 601.9320374949976C163.294841550105 523.6482780279022 154.15375465936836 436.9613754721415 237.81120304283297 326.5327994756618C321.4686514262976 216.1042234791821 564.8505937907349 -6.408886755199887 613.0841475302009 71.87487271189559C661.3177012696669 150.15863217899107 552.9897093757346 591.8662689212404 469.33226099227 702.2948449177201 "></path><path d="M601.2461240752896 90.10410918070085C646.8000359403408 164.03877089962435 544.4902658182937 581.2070944895264 465.48045345613264 685.5007495973128C386.4706410939716 789.7944047050992 267.5529366019681 664.6483154169986 221.99902473691685 590.713653698075C176.44511287186566 516.7789919791514 167.8118641417255 434.9080284542665 246.82167650388652 330.6143733464801C325.8314888660476 226.3207182386937 555.6922122102384 16.169447461777338 601.2461240752896 90.10410918070085C646.8000359403408 164.03877089962435 544.4902658182937 581.2070944895264 465.48045345613264 685.5007495973128 "></path><path d="M589.4081158791673 108.3332846143499C632.2823858698038 177.9188485851014 535.9908375196417 570.5478590226562 461.6286611787842 668.7065932417494C387.2664848379268 766.8653274608424 275.34393943368826 649.0807728367477 232.46966944305183 579.4952088659961C189.5953994524154 509.9096448952446 181.4699888828717 432.854620401235 255.83216522372913 334.6958861821421C330.1943415645866 236.53715196304904 546.5338458885309 38.74772064359837 589.4081158791673 108.3332846143499C632.2823858698038 177.9188485851014 535.9908375196417 570.5478590226562 461.6286611787842 668.7065932417494 "></path><path d="M577.5701076830451 126.56246004799891C617.7647357992666 191.79892627057848 527.4914092209898 559.8886235557861 457.77686890143593 651.9124368861859C388.06232858188207 743.9362502165857 283.1349422654084 633.5132302564969 242.94031414918675 568.2767640339173C202.74568603296512 503.0402978113377 195.12811362401789 430.80121234820376 264.84265394357175 338.7773990178041C334.5571942631256 246.75358568740438 537.3754795668234 61.325993825419346 577.5701076830451 126.56246004799891C617.7647357992666 191.79892627057848 527.4914092209898 559.8886235557861 457.77686890143593 651.9124368861859 "></path><path d="M565.7320994869228 144.79160496406985C603.2470857287296 205.67897343847744 518.9919809223378 549.2293575713379 453.9250766240875 635.1182500130444C388.85817232583736 721.0071424547508 290.9259450971286 617.9456571586679 253.41095885532172 557.0582886842603C215.89597261351486 496.17092020985274 208.78623836516408 428.7477737775944 273.85314266341436 342.858881335888C338.92004696166464 256.9699888941816 528.2171132451158 83.90423648966225 565.7320994869228 144.79160496406985C603.2470857287296 205.67897343847744 518.9919809223378 549.2293575713379 453.9250766240875 635.1182500130444 "></path><path d="M553.8940912908005 163.0207651389298C588.7294356581926 219.5590358651654 510.4925526236859 538.5701068456788 450.07328434673923 618.3240783986919C389.65401606979253 698.078049951705 298.71694792884875 602.3780993196281 263.88160356145664 545.8398285933924C229.04625919406453 489.3015578671568 222.44436310631033 426.69435046577405 282.863631383257 346.94037891276093C343.28289966020367 267.1864073597478 519.0587469234083 106.48249441269417 553.8940912908005 163.0207651389298C588.7294356581926 219.5590358651654 510.4925526236859 538.5701068456788 450.07328434673923 618.3240783986919 "></path><path d="M542.0560678358892 181.24991005500067C574.2117703288666 233.43908303306432 501.99310906624487 527.9108408612306 446.22147681060187 601.5298915255503C390.44984455495876 675.14894218987 306.50793550177985 586.810526221799 274.35223300880256 534.6213532437353C242.1965305158252 482.4321802656717 236.10247258866747 424.64091189516466 291.8741048443105 351.0218612308448C347.64573709995364 277.40281056652503 509.90036534291187 129.06073707693702 542.0560678358892 181.24991005500067C574.2117703288666 233.43908303306432 501.99310906624487 527.9108408612306 446.22147681060187 601.5298915255503 "></path><path d="M530.2180596397669 199.47907022986067C559.6941202583293 247.31914545975235 493.493680767593 517.2515901355713 442.3696845332536 584.7357199111977C391.24568829891405 652.2198496868243 314.2989383335 571.2429683827592 284.8228777149375 523.4028931528675C255.34681709637493 475.5628179229758 249.76059732981366 422.5874885833442 300.88459356415314 355.10335880771777C352.0085897984926 287.6192290320913 500.7419990212044 151.638994999969 530.2180596397669 199.47907022986067C559.6941202583293 247.31914545975235 493.493680767593 517.2515901355713 442.3696845332536 584.7357199111977 "></path><path d="M518.3800514436446 217.7082761810878C545.1764701877923 261.1992536628075 484.9942524689411 506.59238518627933 438.51789225590517 567.9415940732125C392.0415320428693 629.2908029601456 322.0899411652202 555.6754563200865 295.29352242107245 512.1844788383667C268.49710367692467 468.69350135664695 263.41872207095986 420.5341110478911 309.89508228399575 359.1849021609579C356.37144249703164 297.8356932740248 491.5836326994968 174.2172986993681 518.3800514436446 217.7082761810878C545.1764701877923 261.1992536628075 484.9942524689411 506.59238518627933 438.51789225590517 567.9415940732125 "></path><path d="M506.54207376510044 235.93748213231498C530.6588506348335 275.0793618658627 476.49485468786725 495.93318023698737 434.666130496135 551.1474682352273C392.8374063044027 606.3617562334671 329.88097451451847 540.1079442574137 305.7641976447855 500.96606452386595C281.6474207750525 461.8241847903182 277.0768773296842 418.48073351243795 318.9056015214165 363.2664455141981C360.7343257131488 308.05215751595824 482.4252968953674 196.79560239876724 506.54207376510044 235.93748213231498C530.6588506348335 275.0793618658627 476.49485468786725 495.93318023698737 434.666130496135 551.1474682352273 "></path><path d="M494.7040655689782 254.16664230717493C516.1412005642965 288.9594242925507 467.99542638921537 485.2739295113281 430.81433821878665 534.3532966208747C393.6332500483579 583.4326637304212 337.67197734623863 524.5403864183738 316.2348423509204 489.74760443299806C294.7977073556022 454.9548224476223 290.7350020708304 416.4273102006175 327.9160902412591 367.34794309107104C365.0971784116878 318.2685759815245 473.2669305736599 219.37386032179916 494.7040655689782 254.16664230717493C516.1412005642965 288.9594242925507 467.99542638921537 485.2739295113281 430.81433821878665 534.3532966208747 "></path><path d="M482.86605737285595 272.3958024820349C501.62355049375935 302.8394867192387 459.4959980905635 474.61467878566896 426.9625459414383 517.5591250065222C394.4290937923132 560.5035712273755 345.4629801779588 508.97282857933396 326.7054870570554 478.52914434213017C307.94799393615193 448.08546010492637 304.3931268119766 414.3738868887972 336.9265789611017 371.429440667944C369.46003111022685 328.4849944470908 464.10856425195243 241.95211824483113 482.86605737285595 272.3958024820349C501.62355049375935 302.8394867192387 459.4959980905635 474.61467878566896 426.9625459414383 517.5591250065222 "></path><path d="M471.0280491767337 290.6249779156839C487.10590042322235 316.71956440471575 450.9965697919115 463.95544331879887 423.11075366409 500.76496865095874C395.22493753626844 537.5744939831186 353.253983009679 493.40528599908316 337.1761317631903 467.3106995100512C321.09828051670166 441.21611302101945 318.05125155312277 412.3204788357659 345.9370676809443 375.510953503606C373.8228838087659 338.70142817144614 454.950197930245 264.5303914266521 471.0280491767337 290.6249779156839C487.10590042322235 316.71956440471575 450.9965697919115 463.95544331879887 423.11075366409 500.76496865095874 "></path><path d="M459.19004098061134 308.854153349333C472.58825035268524 330.59964209019284 442.4971414932596 453.2962078519287 419.25896138674165 483.97081229539526C396.02078128022373 514.6454167388619 361.0449858413992 477.83774341883236 347.6467764693253 456.0922546779724C334.2485670972514 434.34676593711254 331.70937629426896 410.2670707827346 354.94755640078694 379.592466339268C378.1857365073049 348.9178618958015 445.79183160853745 287.10866460847313 459.19004098061134 308.854153349333C472.58825035268524 330.59964209019284 442.4971414932596 453.2962078519287 419.25896138674165 483.97081229539526 "></path><path d="M447.3520327844891 327.08329826540387C458.07060028214823 344.47968925809175 433.9977131946077 442.63694186748046 415.4071691093933 467.1766254222538C396.81662502417896 491.716308977027 368.83598867311935 462.2701703210033 358.1174211754602 444.87377932831544C347.3988536778011 427.47738833562755 345.3675010354152 408.21363221212516 363.95804512062955 383.67394865735196C382.54858920584394 359.13426510257864 436.63346528682996 309.686907272716 447.3520327844891 327.08329826540387C458.07060028214823 344.47968925809175 433.9977131946077 442.63694186748046 415.4071691093933 467.1766254222538 "></path><path d="M435.5140093295778 345.312488957842C443.5529349528221 358.3597822023579 425.4982696371667 431.97772165939944 411.55536157325594 450.38248432547937C397.6124535093452 468.7872469915593 376.62697624605045 446.7026429995416 368.5880506228061 433.6553497550256C360.5491249995618 420.60805651050975 359.02561051777235 406.16023941788296 372.9685185816831 387.75547675180303C386.91142664559385 369.35071408572304 427.4750837063334 332.2651957133261 435.5140093295778 345.312488957842C443.5529349528221 358.3597822023579 425.4982696371667 431.97772165939944 411.55536157325594 450.38248432547937 "></path><path d="M423.6760011334555 363.541664391491C429.03528488228505 372.23985988783494 416.9988413385148 421.3184861925293 407.7035692959076 433.58832796991595C398.4082972533004 445.85816974730255 384.4179790777706 431.1351004192907 379.05869532894104 422.4369049229468C373.6994115801115 413.73870942660284 372.68373525891855 404.10683136485164 381.9790073015257 391.83698958746504C391.2742793441329 379.5671478100784 418.3167173846259 354.84346889514705 423.6760011334555 363.541664391491C429.03528488228505 372.23985988783494 416.9988413385148 421.3184861925293 407.7035692959076 433.58832796991595 "></path><path d="M411.83800819612225 381.770824566351C414.51765007053706 386.11992231452297 408.49942829865194 410.65923546687014 403.85179227734835 416.7941563555634C399.2041562560447 422.92907724425675 392.20899716827984 415.5675425802508 389.5293552938651 411.2184448320789C386.84971341945027 406.86934708390686 386.3418752588538 402.0534080530313 390.9895112801574 395.918487164338C395.63714730146097 389.78356627564466 409.1583663217075 377.421726818179 411.83800819612225 381.770824566351C414.51765007053706 386.11992231452297 408.49942829865194 410.65923546687014 403.85179227734835 416.7941563555634 "></path></g></svg>